<?xml version="1.0" encoding="UTF-8" standalone="no"?>
<svg
   width="4763.6084"
   height="742.06"
   viewBox="0 0 4763.6084 742.06"
   fill="none"
   version="1.1"
   id="svg17"
   sodipodi:docname="OFE-teal-white-text-oneline.svg"
   inkscape:version="1.4 (e7c3feb1, 2024-10-09)"
   xmlns:inkscape="http://www.inkscape.org/namespaces/inkscape"
   xmlns:sodipodi="http://sodipodi.sourceforge.net/DTD/sodipodi-0.dtd"
   xmlns="http://www.w3.org/2000/svg"
   xmlns:svg="http://www.w3.org/2000/svg">
  <sodipodi:namedview
     id="namedview17"
     pagecolor="#ffffff"
     bordercolor="#cccccc"
     borderopacity="1"
     inkscape:showpageshadow="0"
     inkscape:pageopacity="1"
     inkscape:pagecheckerboard="false"
     inkscape:deskcolor="#d1d1d1"
     inkscape:zoom="0.31812067"
     inkscape:cx="322.20478"
     inkscape:cy="535.96014"
     inkscape:window-width="1512"
     inkscape:window-height="888"
     inkscape:window-x="0"
     inkscape:window-y="38"
     inkscape:window-maximized="0"
     inkscape:current-layer="g17" />
  <g
     id="text17"
     style="font-size:298.667px;font-family:Sans;-inkscape-font-specification:'Sans, Normal';text-align:end;direction:rtl;white-space:pre;fill:#ffffff;fill-opacity:1;stroke-width:7.181;stroke-linecap:round;stroke-linejoin:round;stroke-miterlimit:3.2;stroke-opacity:0.760784;paint-order:markers fill stroke"
     transform="matrix(1.4720943,0,0,1.4720943,-206.7663,581.33803)"
     aria-label="Open Free Energy">
    <path
       style="-inkscape-font-specification:'Inter, Semi-Bold';fill:#ffffff;fill-opacity:1"
       d="m 922.60153,-23.322737 c 56.87504,0 99.60457,-41.270879 99.60457,-111.416793 0,-70.29174 -42.72953,-111.70845 -99.60457,-111.70845 -57.02089,0 -99.89594,41.41671 -99.89594,111.70845 0,70.000081 42.87505,111.416793 99.89594,111.416793 z m 0,-34.854205 c -35.58337,0 -60.81256,-27.125029 -60.81256,-76.562588 0,-49.72922 25.22919,-76.85425 60.81256,-76.85425 35.29171,0 60.37504,26.9792 60.37504,76.85425 0,49.583392 -25.08333,76.562588 -60.37504,76.562588 z m 134.75097,92.895935 h 37.9172 v -86.770928 h 1.6042 c 5.8334,11.812513 18.5209,28.729198 46.5209,28.729198 38.6459,0 67.3751,-30.625034 67.3751,-84.145923 0,-54.25006 -29.6042,-83.85426 -67.2293,-83.85426 -29.0208,0 -40.9792,17.50002 -46.6667,29.02086 h -2.4792 v -26.97919 h -37.0422 z m 75.834,-89.250098 c -24.7917,0 -38.646,-21.291689 -38.646,-53.083395 0,-31.7917 13.5626,-52.50005 38.646,-52.50005 25.6666,0 38.6458,22.16669 38.6458,52.50005 0,30.625038 -13.2708,53.083395 -38.6458,53.083395 z m 182.5835,31.645868 c 36.3125,0 61.6875,-17.354185 69.5626,-43.750047 l -34.8542,-7.145842 c -5.1042,13.854182 -17.6459,21.145857 -34.2709,21.145857 -24.3542,0 -40.8334,-15.45835 -41.8542,-44.479215 h 113.4584 v -11.958346 c 0,-57.16673 -34.7083,-82.25009 -74.5209,-82.25009 -46.6667,0 -76.7084,34.4167 -76.7084,84.58343 0,51.041717 30.0417,83.854253 79.1876,83.854253 z m -41.2709,-100.041773 c 1.75,-21.72919 15.75,-38.64588 38.9375,-38.64588 22.6042,0 35.2918,15.31252 37.4793,38.64588 z m 183.7502,1.16667 c 0,-23.62503 14.5834,-37.33338 34.8542,-37.33338 19.8334,0 31.7917,13.12502 31.7917,35.00004 v 97.854273 h 37.9167 V -129.92702 c 0,-39.22921 -22.1667,-61.3959 -55.7084,-61.3959 -23.9167,0 -40.8333,11.66668 -50.4584,34.56254 l -0.4375,-32.52087 h -35.875 v 163.041843 h 37.9167 z"
       id="path2" />
    <path
       style="-inkscape-font-specification:'Inter, Semi-Bold';fill:#ffffff;fill-opacity:1"
       d="m 1680.062,-26.239407 h 38.9376 v -86.916763 h 90.4167 v -32.37503 h -90.4167 v -65.18757 h 100.1876 v -32.81254 H 1680.062 Z m 166.9794,0 h 37.9167 v -95.958433 c 0,-20.70836 15.6042,-35.29171 36.7501,-35.29171 6.7083,0 14.7291,1.02083 17.9375,1.89584 v -34.85421 c -3.6459,-0.58333 -9.625,-1.02083 -13.8542,-1.02083 -18.6667,0 -34.4167,10.64584 -40.2501,29.45836 h -1.75 v -27.27086 h -36.75 z m 184.0418,3.35417 c 36.3126,0 61.6876,-17.354185 69.5626,-43.750047 l -34.8542,-7.145842 c -5.1042,13.854182 -17.6459,21.145857 -34.2709,21.145857 -24.3542,0 -40.8334,-15.45835 -41.8542,-44.479215 h 113.4585 v -11.958346 c 0,-57.16673 -34.7084,-82.25009 -74.521,-82.25009 -46.6667,0 -76.7084,34.4167 -76.7084,84.58343 0,51.041717 30.0417,83.854253 79.1876,83.854253 z m -41.2709,-100.041773 c 1.75,-21.72919 15.7501,-38.64588 38.9376,-38.64588 22.6042,0 35.2917,15.31252 37.4792,38.64588 z m 217.8753,100.041773 c 36.3125,0 61.6876,-17.354185 69.5626,-43.750047 l -34.8542,-7.145842 c -5.1042,13.854182 -17.6459,21.145857 -34.2709,21.145857 -24.3542,0 -40.8334,-15.45835 -41.8542,-44.479215 h 113.4584 v -11.958346 c 0,-57.16673 -34.7083,-82.25009 -74.5209,-82.25009 -46.6667,0 -76.7084,34.4167 -76.7084,84.58343 0,51.041717 30.0417,83.854253 79.1876,83.854253 z m -41.2709,-100.041773 c 1.75,-21.72919 15.75,-38.64588 38.9375,-38.64588 22.6042,0 35.2918,15.31252 37.4793,38.64588 z m 222.8336,96.687603 h 141.7502 v -32.812536 h -102.8126 v -60.666737 h 94.6459 v -32.37503 h -94.6459 v -58.62506 h 102.2293 v -32.81254 h -141.1669 z m 217.0002,-95.520933 c 0,-23.62503 14.5834,-37.33338 34.8542,-37.33338 19.8334,0 31.7917,13.12502 31.7917,35.00004 v 97.854273 h 37.9167 V -129.92702 c 0,-39.22921 -22.1666,-61.3959 -55.7083,-61.3959 -23.9167,0 -40.8334,11.66668 -50.4584,34.56254 l -0.4375,-32.52087 h -35.8751 v 163.041843 h 37.9167 z m 216.8544,98.875103 c 36.3126,0 61.6876,-17.354185 69.5626,-43.750047 l -34.8542,-7.145842 c -5.1042,13.854182 -17.6458,21.145857 -34.2709,21.145857 -24.3542,0 -40.8333,-15.45835 -41.8542,-44.479215 h 113.4585 v -11.958346 c 0,-57.16673 -34.7084,-82.25009 -74.5209,-82.25009 -46.6667,0 -76.7084,34.4167 -76.7084,84.58343 0,51.041717 30.0417,83.854253 79.1875,83.854253 z m -41.2708,-100.041773 c 1.75,-21.72919 15.75,-38.64588 38.9375,-38.64588 22.6042,0 35.2917,15.31252 37.4792,38.64588 z m 145.8335,96.687603 h 37.9167 v -95.958433 c 0,-20.70836 15.6042,-35.29171 36.75,-35.29171 6.7084,0 14.7292,1.02083 17.9375,1.89584 v -34.85421 c -3.6458,-0.58333 -9.625,-1.02083 -13.8541,-1.02083 -18.6667,0 -34.4168,10.64584 -40.2501,29.45836 h -1.75 v -27.27086 h -36.75 z m 182.2917,64.458404 c 43.8959,0 76.2709,-20.416689 76.2709,-64.020904 V -189.28125 h -37.1875 v 26.97919 h -2.0417 c -5.8333,-11.52084 -18.2292,-29.02086 -47.1042,-29.02086 -37.625,0 -67.3751,29.6042 -67.3751,83.12509 0,53.083391 29.6042,79.479254 67.0834,79.479254 28.1459,0 40.1042,-14.875017 45.9376,-26.68753 h 3.2083 v 30.770867 c 0,23.3333591 -15.4583,33.979204 -38.9375,33.979204 -23.7709,0 -33.8334,-11.2291789 -38.9376,-20.416689 l -32.0833,11.52084601 c 8.1666,21.58335699 31.9375,37.77087499 71.1667,37.77087499 z m 0.2917,-96.833439 c -25.3751,0 -38.9376,-19.833355 -38.9376,-49.875058 0,-29.6042 13.2709,-51.62505 38.9376,-51.62505 25.0833,0 38.6459,20.70835 38.6459,51.62505 0,31.208371 -13.8542,49.875058 -38.6459,49.875058 z m 114.6251,90.562598 c 5.1042,2.041669 14.5834,3.937505 25.3751,3.937505 29.4583,0 46.2292,-15.02085 56.1459,-41.1250452 l 70,-184.0418658 h -40.1042 l -30.7708,88.66676 c -4.8125,14.000017 -8.4584,28.145866 -12.1042,42.437548 -3.2084,-14.291682 -6.4167,-28.291697 -11.0834,-42.437548 l -29.75,-88.66676 h -40.5417 l 61.5417,163.625177 -2.3333,10.354178 c -3.9375,18.6666869 -15.8959,23.3333586 -32.9584,18.8125203 l -4.5208,-1.1666679 z"
       id="path3" />
  </g>
  <g
     clip-path="url(#clip0_396_174)"
     id="g17">
    <path
       d="m 267.99,102.211 c -148,0 -267.99,119.98 -267.99,268 0,81.85 36.71,155.11 94.54,204.28 l 232.83,-465.66 c -19.1,-4.33 -38.97,-6.62 -59.38,-6.62 z"
       fill="#8a2283"
       id="path15"
       style="fill:#ffffff;fill-opacity:1" />
    <path
       d="m 515.66,267.67 c 13.09,31.58 20.33,66.22 20.33,102.54 0,142.05 -110.52,258.26 -250.26,267.39 H 702.44 L 380.64,0 63.6396,637.6 H 267.99 V 267.67 Z"
       fill="#00bdaa"
       id="path16"
       style="fill:#00bdaa;fill-opacity:1"
       sodipodi:nodetypes="csccccccc" />
    <path
       d="M 516.81,267.67 702.08,638.2 H 267.99 V 742.06 H 747.62 V 267.66 H 516.81 Z"
       fill="#8a2283"
       id="path17"
       style="fill:#ffffff;fill-opacity:1"
       sodipodi:nodetypes="cccccccc" />
  </g>
  <defs
     id="defs17">
    <rect
       x="710.68713"
       y="-302.70007"
       width="2882.231"
       height="473.79141"
       id="rect18" />
    <clipPath
       id="clip0_396_174">
      <rect
         width="747.62"
         height="742.06"
         fill="#ffffff"
         id="rect17"
         x="0"
         y="0" />
    </clipPath>
  </defs>
</svg>
